<svg version="1.1" id="Layer_1" xmlns="http://www.w3.org/2000/svg" xmlns:xlink="http://www.w3.org/1999/xlink" x="0px" y="0px"
	 width="100%" viewBox="0 0 67 66" enable-background="new 0 0 67 66" xml:space="preserve">
<path fill="#EBF8F9" opacity="1.000000" stroke="none" 
	d="
M25.000000,1.000000 
	C30.022093,1.000000 35.044186,1.000000 40.533134,1.436638 
	C40.885189,3.683812 41.023220,7.009376 40.617561,7.077073 
	C34.762650,8.054158 33.953686,14.458882 30.100840,16.763681 
	C25.440094,19.551773 23.932011,22.083330 25.717896,27.002769 
	C25.288502,27.262705 25.137650,27.398819 24.815868,27.543121 
	C24.415514,27.646954 24.272783,27.815882 23.867165,28.083572 
	C21.986311,29.062176 20.455048,30.015303 18.617119,31.086285 
	C17.541201,32.624008 16.771948,34.043873 15.988739,35.560448 
	C15.974782,35.657158 15.946160,35.850468 15.637030,36.021118 
	C14.126534,36.964046 12.562841,37.476540 11.789211,38.555508 
	C9.062582,42.358303 5.387961,43.444878 1.000000,43.000000 
	C1.000000,37.311958 1.000000,31.623919 1.382295,25.467363 
	C3.474097,24.200832 5.448127,23.715065 6.836950,22.538509 
	C9.561623,20.230278 11.960505,17.537470 14.494139,15.003741 
	C17.261156,12.236617 20.231277,9.636907 22.708954,6.631258 
	C23.939236,5.138810 24.265022,2.900749 25.000000,1.000000 
z"/>
<path fill="#D8F7F4" opacity="1.000000" stroke="none" 
	d="
M46.000000,67.000000 
	C37.979099,67.000000 29.958199,67.000000 21.525763,66.655884 
	C24.325502,62.110355 27.536777,57.908936 30.472893,54.067520 
	C29.510996,52.179268 28.738522,50.662861 28.422329,49.172478 
	C29.433550,48.789154 29.988493,48.379810 30.683922,48.103836 
	C31.545662,48.308804 32.266914,48.380398 32.663948,48.809933 
	C33.923031,49.746002 35.506336,50.324131 37.089645,50.902260 
	C37.393486,50.006355 37.697330,49.110447 38.277229,48.458618 
	C39.033657,48.738724 39.514030,48.774746 40.261211,48.910851 
	C41.074879,48.872921 41.621735,48.734909 42.497570,48.633213 
	C43.214947,48.478119 43.603344,48.286709 44.328041,48.099304 
	C45.441532,47.731266 46.218723,47.359222 47.334373,46.979118 
	C48.775013,46.293182 49.877197,45.615303 51.356689,44.771622 
	C52.001766,43.726154 52.269531,42.846485 52.513416,41.976875 
	C52.489532,41.986935 52.468464,42.034294 52.761894,42.402618 
	C54.224888,41.838215 55.394447,40.905487 56.820229,39.762306 
	C60.230251,38.653946 62.354923,37.092602 62.047081,33.286488 
	C61.709705,29.115191 64.225136,27.750280 68.000000,28.000000 
	C68.000000,33.022091 68.000000,38.044186 67.625702,43.539585 
	C64.769455,45.868877 62.217342,47.640057 59.832218,49.613102 
	C58.432987,50.770584 57.211082,52.179470 56.080219,53.610271 
	C55.413460,54.453880 55.188435,56.345615 54.580872,56.429184 
	C48.316250,57.290882 47.827026,62.662048 46.000000,67.000000 
z"/>
<path fill="#E2F7F6" opacity="1.000000" stroke="none" 
	d="
M27.966049,49.146458 
	C28.738522,50.662861 29.510996,52.179268 30.472893,54.067520 
	C27.536777,57.908936 24.325502,62.110355 21.057114,66.655884 
	C14.400366,67.000000 7.800731,67.000000 1.000000,67.000000 
	C1.000000,59.313625 1.000000,51.625507 1.000000,43.468693 
	C5.387961,43.444878 9.062582,42.358303 11.789211,38.555508 
	C12.562841,37.476540 14.126534,36.964046 15.895015,36.170238 
	C17.306677,36.631958 18.151224,37.115204 18.736580,37.831406 
	C15.078384,41.810482 19.778105,42.231197 21.106655,44.407379 
	C23.511671,45.811047 25.765045,46.905743 28.008060,48.001419 
	C27.997700,48.002399 28.003893,47.982586 27.760218,48.265938 
	C27.666378,48.748344 27.816212,48.947403 27.966049,49.146458 
z"/>
<path fill="#E5F8F7" opacity="1.000000" stroke="none" 
	d="
M25.996435,26.878948 
	C23.932011,22.083330 25.440094,19.551773 30.100840,16.763681 
	C33.953686,14.458882 34.762650,8.054158 40.617561,7.077073 
	C41.023220,7.009376 40.885189,3.683812 40.999996,1.436638 
	C47.021152,1.000000 53.042305,1.000000 59.531727,1.415353 
	C60.456043,5.303281 59.459869,7.709811 55.897221,9.209057 
	C54.253216,9.900892 53.232807,12.061804 51.913227,13.541972 
	C51.080788,14.475714 50.376278,15.899751 49.342693,16.216053 
	C43.241661,18.083128 43.310890,22.235397 44.604187,27.062885 
	C43.815258,26.835239 43.388294,26.655092 42.733513,26.345459 
	C41.814926,26.141199 41.124153,26.066425 40.136948,25.687794 
	C36.885052,25.449381 33.660271,22.244402 30.672857,26.174088 
	C29.231754,26.547894 28.135559,26.858070 26.775211,27.108261 
	C26.339516,26.991833 26.167976,26.935390 25.996435,26.878948 
z"/>
<path fill="#E1F7F6" opacity="1.000000" stroke="none" 
	d="
M44.966145,27.110384 
	C43.310890,22.235397 43.241661,18.083128 49.342693,16.216053 
	C50.376278,15.899751 51.080788,14.475714 51.913227,13.541972 
	C53.232807,12.061804 54.253216,9.900892 55.897221,9.209057 
	C59.459869,7.709811 60.456043,5.303281 60.000000,1.415353 
	C62.603985,1.000000 65.207970,1.000000 68.000000,1.000000 
	C68.000000,4.679317 68.000000,8.360483 67.655243,12.583036 
	C66.052788,14.972016 65.131935,17.230366 63.474030,18.589941 
	C58.561749,22.618284 54.347897,27.094265 51.575401,32.885628 
	C49.166119,30.860048 47.066132,28.985216 44.966145,27.110384 
z"/>
<path fill="#F0F9FA" opacity="1.000000" stroke="none" 
	d="
M24.531307,1.000000 
	C24.265022,2.900749 23.939236,5.138810 22.708954,6.631258 
	C20.231277,9.636907 17.261156,12.236617 14.494139,15.003741 
	C11.960505,17.537470 9.561623,20.230278 6.836950,22.538509 
	C5.448127,23.715065 3.474097,24.200832 1.382295,24.999424 
	C1.000000,17.073662 1.000000,9.147325 1.000000,1.000000 
	C8.686132,1.000000 16.374374,1.000000 24.531307,1.000000 
z"/>
<path fill="#D2F6F3" opacity="1.000000" stroke="none" 
	d="
M46.468781,67.000000 
	C47.827026,62.662048 48.316250,57.290882 54.580872,56.429184 
	C55.188435,56.345615 55.413460,54.453880 56.080219,53.610271 
	C57.211082,52.179470 58.432987,50.770584 59.832218,49.613102 
	C62.217342,47.640057 64.769455,45.868877 67.625702,44.006447 
	C68.000000,51.591282 68.000000,59.182560 68.000000,67.000000 
	C60.980801,67.000000 53.959183,67.000000 46.468781,67.000000 
z"/>
<path fill="#DBF6F5" opacity="1.000000" stroke="none" 
	d="
M51.884697,33.036377 
	C54.347897,27.094265 58.561749,22.618284 63.474030,18.589941 
	C65.131935,17.230366 66.052788,14.972016 67.655243,13.062212 
	C68.000000,17.689255 68.000000,22.378511 68.000000,27.533882 
	C64.225136,27.750280 61.709705,29.115191 62.047081,33.286488 
	C62.354923,37.092602 60.230251,38.653946 56.402622,39.793686 
	C55.170883,40.034454 54.612968,40.033386 53.754730,39.906837 
	C52.638882,39.525490 51.823360,39.269623 51.005150,38.750706 
	C51.001759,38.312286 51.001057,38.136917 51.286545,37.766647 
	C51.676723,36.059963 51.780708,34.548168 51.884697,33.036377 
z"/>
<path fill="#E3F8F7" opacity="1.000000" stroke="none" 
	d="
M18.995773,37.598450 
	C18.151224,37.115204 17.306677,36.631958 16.204145,35.999588 
	C15.946160,35.850468 15.974782,35.657158 16.222383,35.298389 
	C17.971722,33.956284 19.473457,32.972950 21.333374,31.956865 
	C22.813375,31.665714 23.935196,31.407312 25.385063,31.142113 
	C26.138487,31.033895 26.563864,30.932472 27.318539,30.902540 
	C28.090521,30.917154 28.533205,30.860277 29.235033,30.885794 
	C29.662533,31.035414 29.830891,31.102640 30.119080,31.350006 
	C30.437191,31.750717 30.678354,31.903702 30.837305,32.309238 
	C30.088734,34.774872 29.465254,36.920361 28.901636,39.383049 
	C29.371881,40.664024 29.782265,41.627800 30.070448,42.886253 
	C29.317333,44.032532 28.686420,44.884129 27.746159,45.676704 
	C26.261702,44.753281 25.086594,43.888885 23.791210,42.707130 
	C22.112545,40.792664 20.554159,39.195557 18.995773,37.598450 
z"/>
<path fill="#0474B6" opacity="1.000000" stroke="none" 
	d="
M25.057016,31.148911 
	C23.935196,31.407312 22.813375,31.665714 21.071575,31.839371 
	C19.942324,31.492559 19.433054,31.230494 18.923784,30.968428 
	C20.455048,30.015303 21.986311,29.062176 24.011875,28.066561 
	C24.506178,28.024071 24.797316,28.006828 24.867069,28.251225 
	C24.958288,28.663689 24.979753,28.831760 25.000309,29.251644 
	C25.000303,29.671331 25.001211,29.839205 25.008205,30.292904 
	C25.028536,30.768791 25.042776,30.958851 25.057016,31.148911 
z"/>
<path fill="#1577B6" opacity="1.000000" stroke="none" 
	d="
M18.617119,31.086285 
	C19.433054,31.230494 19.942324,31.492559 20.713394,31.872120 
	C19.473457,32.972950 17.971722,33.956284 16.236340,35.201679 
	C16.771948,34.043873 17.541201,32.624008 18.617119,31.086285 
z"/>
<path fill="#0F73B5" opacity="1.000000" stroke="none" 
	d="
M25.385063,31.142113 
	C25.042776,30.958851 25.028536,30.768791 25.168005,30.199341 
	C25.214882,29.546579 25.108049,29.273207 25.001219,28.999832 
	C24.979753,28.831760 24.958288,28.663689 24.923462,28.136312 
	C24.910097,27.777006 24.986795,27.534931 24.986795,27.534931 
	C25.137650,27.398819 25.288502,27.262705 25.717896,27.002769 
	C26.167976,26.935390 26.339516,26.991833 26.766369,27.461014 
	C27.014456,28.579430 27.007229,29.285107 26.997501,30.200855 
	C26.995005,30.410925 26.989243,30.831051 26.989243,30.831051 
	C26.563864,30.932472 26.138487,31.033895 25.385063,31.142113 
z"/>
<path fill="#0471B5" opacity="1.000000" stroke="none" 
	d="
M24.815868,27.543121 
	C24.986795,27.534931 24.910097,27.777006 24.853706,27.891918 
	C24.797316,28.006828 24.506178,28.024071 24.361465,28.041080 
	C24.272783,27.815882 24.415514,27.646954 24.815868,27.543121 
z"/>
<path fill="#DDF8F8" opacity="1.000000" stroke="none" 
	d="
M28.055508,45.735725 
	C28.686420,44.884129 29.317333,44.032532 30.365498,42.978420 
	C31.187206,42.842850 31.591665,42.909794 32.175323,43.116116 
	C32.354527,43.255493 32.790089,43.383148 33.127151,43.603527 
	C35.046688,43.688957 36.629162,43.554005 38.513081,43.645390 
	C39.060669,43.922405 39.306808,43.973087 39.531033,44.008156 
	C39.509113,43.992546 39.461529,43.967403 39.497673,44.115940 
	C39.533813,44.264477 39.688553,44.528164 39.677155,44.653522 
	C39.665752,44.778881 39.910309,44.838650 39.498848,44.838585 
	C38.732052,45.976852 38.376713,47.115192 37.736782,48.528366 
	C35.964180,48.686134 34.476177,48.569061 32.988171,48.451992 
	C32.266914,48.380398 31.545662,48.308804 30.251940,47.872223 
	C29.120947,47.665688 28.562420,47.824139 28.003893,47.982590 
	C28.003893,47.982586 27.997700,48.002399 28.357111,47.708965 
	C28.496185,46.855595 28.275846,46.295662 28.055508,45.735725 
z"/>
<path fill="#F2CA3E" opacity="1.000000" stroke="none" 
	d="
M32.663948,48.809933 
	C34.476177,48.569061 35.964180,48.686134 37.752548,48.507454 
	C38.052906,48.211697 38.001171,48.214539 38.001175,48.214539 
	C37.697330,49.110447 37.393486,50.006355 37.089645,50.902260 
	C35.506336,50.324131 33.923031,49.746002 32.663948,48.809933 
z"/>
<path fill="#D32A29" opacity="1.000000" stroke="none" 
	d="
M50.979382,44.937424 
	C49.877197,45.615303 48.775013,46.293182 47.333748,46.718819 
	C46.992542,46.293053 46.990425,46.119530 46.961876,45.653046 
	C46.903633,45.166103 46.871826,44.972126 46.887794,44.557896 
	C46.935574,44.337646 46.922024,43.887112 47.179787,43.775002 
	C47.624870,43.667973 47.812195,43.673046 48.085079,43.873898 
	C48.371494,43.860550 48.572350,43.651428 48.984650,43.321068 
	C49.505268,43.086590 49.824440,43.033585 50.364433,43.213203 
	C50.709965,43.902870 50.844673,44.420143 50.979382,44.937424 
z"/>
<path fill="#CF231C" opacity="1.000000" stroke="none" 
	d="
M46.988312,45.946011 
	C46.990425,46.119530 46.992542,46.293053 46.995293,46.726875 
	C46.218723,47.359222 45.441532,47.731266 44.330727,47.731899 
	C44.006218,46.625881 44.015320,45.891277 44.351532,45.108994 
	C45.119110,45.045647 45.559574,45.029980 46.112316,45.220005 
	C46.424320,45.679626 46.678894,45.853065 46.988312,45.946011 
z"/>
<path fill="#D32A29" opacity="1.000000" stroke="none" 
	d="
M44.024422,45.156670 
	C44.015320,45.891277 44.006218,46.625881 43.994431,47.727898 
	C43.603344,48.286709 43.214947,48.478119 42.431763,48.257668 
	C41.356369,47.235317 40.675758,46.624825 39.974964,45.720337 
	C39.939957,45.230446 39.925133,45.034546 39.910309,44.838650 
	C39.910309,44.838650 39.665752,44.778881 40.068802,44.804329 
	C41.305958,44.851654 42.140057,44.873535 43.237782,44.956478 
	C43.675743,45.063923 43.850082,45.110298 44.024422,45.156670 
z"/>
<path fill="#CF1D1B" opacity="1.000000" stroke="none" 
	d="
M39.498848,44.838585 
	C39.925133,45.034546 39.939957,45.230446 39.975933,46.069595 
	C39.996189,47.412159 39.995293,48.111462 39.994400,48.810768 
	C39.514030,48.774746 39.033657,48.738724 38.277229,48.458618 
	C38.001171,48.214539 38.052906,48.211697 38.037140,48.232613 
	C38.376713,47.115192 38.732052,45.976852 39.498848,44.838585 
z"/>
<path fill="#CF231C" opacity="1.000000" stroke="none" 
	d="
M40.261211,48.910851 
	C39.995293,48.111462 39.996189,47.412159 39.996117,46.363594 
	C40.675758,46.624825 41.356369,47.235317 42.102783,48.221352 
	C41.621735,48.734909 41.074879,48.872921 40.261211,48.910851 
z"/>
<path fill="#D4F0EF" opacity="1.000000" stroke="none" 
	d="
M52.468464,42.034294 
	C52.468464,42.034294 52.489532,41.986935 52.111629,41.951496 
	C51.221050,42.076580 50.708378,42.237099 50.160507,42.059303 
	C50.416920,41.147278 50.708534,40.573563 51.222496,40.084362 
	C51.856838,40.406963 52.268837,40.645046 52.565880,41.159508 
	C52.456764,41.635353 52.462616,41.834824 52.468464,42.034294 
z"/>
<path fill="#CD2828" opacity="1.000000" stroke="none" 
	d="
M52.761894,42.402618 
	C52.462616,41.834824 52.456764,41.635353 52.846600,41.112225 
	C53.513206,40.536484 53.784130,40.284397 54.055054,40.032314 
	C54.612968,40.033386 55.170883,40.034454 56.146400,40.004143 
	C55.394447,40.905487 54.224888,41.838215 52.761894,42.402618 
z"/>
<path fill="#CD2828" opacity="1.000000" stroke="none" 
	d="
M50.195705,42.397621 
	C50.708378,42.237099 51.221050,42.076580 52.135513,41.941437 
	C52.269531,42.846485 52.001766,43.726154 51.356689,44.771622 
	C50.844673,44.420143 50.709965,43.902870 50.378510,43.052635 
	C50.181763,42.719677 50.195705,42.397621 50.195705,42.397621 
z"/>
<path fill="#FAC007" opacity="1.000000" stroke="none" 
	d="
M27.760218,48.265938 
	C28.562420,47.824139 29.120947,47.665688 30.111454,47.738853 
	C29.988493,48.379810 29.433550,48.789154 28.422329,49.172478 
	C27.816212,48.947403 27.666378,48.748344 27.760218,48.265938 
z"/>
<path fill="#F9C30F" opacity="1.000000" stroke="none" 
	d="
M18.736580,37.831406 
	C20.554159,39.195557 22.112545,40.792664 23.453651,42.707840 
	C22.475916,43.383408 21.715464,43.740906 20.955009,44.098412 
	C19.778105,42.231197 15.078384,41.810482 18.736580,37.831406 
z"/>
<path fill="#FAC007" opacity="1.000000" stroke="none" 
	d="
M21.106653,44.407379 
	C21.715464,43.740906 22.475916,43.383408 23.573929,43.025200 
	C25.086594,43.888885 26.261702,44.753281 27.746159,45.676704 
	C28.275846,46.295662 28.496185,46.855595 28.367470,47.707985 
	C25.765045,46.905743 23.511671,45.811047 21.106653,44.407379 
z"/>
<path fill="#E3F8F7" opacity="1.000000" stroke="none" 
	d="
M30.962397,31.989096 
	C30.678354,31.903702 30.437191,31.750717 30.453735,31.249588 
	C33.833107,29.962149 32.979534,28.104685 32.072762,26.164043 
	C34.129517,26.466228 35.801250,26.758829 37.960426,27.254511 
	C38.986378,26.975023 39.524883,26.492453 40.158890,26.066248 
	C40.254387,26.122614 40.433376,25.991653 40.433376,25.991653 
	C41.124153,26.066425 41.814926,26.141199 42.724159,26.476040 
	C42.942616,26.736105 42.996155,26.992117 42.630554,26.685799 
	C41.685097,26.531412 41.105236,26.683348 40.525379,26.835281 
	C40.997578,27.563650 41.469772,28.292019 42.036495,29.323071 
	C43.100967,30.717726 44.070915,31.809700 44.999855,33.244568 
	C44.028622,34.723396 43.098392,35.859333 42.073681,36.647251 
	C40.983398,35.861095 39.987602,35.422958 38.869530,34.762714 
	C38.466942,34.358940 38.186626,34.177277 37.834682,33.803974 
	C37.738567,33.320992 37.607498,33.090183 37.194153,32.518833 
	C36.216724,31.962133 35.414978,31.806517 34.346409,31.543516 
	C33.739697,31.587446 33.399815,31.738760 32.789284,31.934101 
	C32.349415,32.047260 32.180187,32.116398 31.751492,32.122177 
	C31.315477,32.035576 31.138937,32.012337 30.962397,31.989096 
z"/>
<path fill="#058A4D" opacity="1.000000" stroke="none" 
	d="
M45.040859,32.901672 
	C44.070915,31.809700 43.100967,30.717726 42.286888,29.152918 
	C42.627216,28.117426 42.811684,27.554771 42.996155,26.992117 
	C42.996155,26.992117 42.942616,26.736105 42.951973,26.605526 
	C43.388294,26.655092 43.815258,26.835239 44.604187,27.062885 
	C47.066132,28.985216 49.166119,30.860048 51.575401,32.885628 
	C51.780708,34.548168 51.676723,36.059963 50.938160,37.706387 
	C48.549343,36.194569 46.795101,34.548119 45.040859,32.901672 
z"/>
<path fill="#0471B5" opacity="1.000000" stroke="none" 
	d="
M31.687738,26.154455 
	C32.979534,28.104685 33.833107,29.962149 30.333904,31.069452 
	C29.830891,31.102640 29.662533,31.035414 29.046280,30.681080 
	C28.065590,30.259579 27.532795,30.125183 27.000000,29.990786 
	C27.007229,29.285107 27.014456,28.579430 27.030525,27.520998 
	C28.135559,26.858070 29.231754,26.547894 30.833885,26.284153 
	C31.339823,26.330589 31.687738,26.154455 31.687738,26.154455 
z"/>
<path fill="#AED3CC" opacity="1.000000" stroke="none" 
	d="
M32.072762,26.164043 
	C31.687738,26.154455 31.339823,26.330589 31.178795,26.220524 
	C33.660271,22.244402 36.885052,25.449381 40.136948,25.687794 
	C40.433376,25.991653 40.254387,26.122614 39.749290,25.949869 
	C38.653793,26.201893 38.063385,26.626659 37.472980,27.051428 
	C35.801250,26.758829 34.129517,26.466228 32.072762,26.164043 
z"/>
<path fill="#DDF7F6" opacity="1.000000" stroke="none" 
	d="
M44.999855,33.244568 
	C46.795101,34.548119 48.549343,36.194569 50.651970,37.901283 
	C51.001057,38.136917 51.001759,38.312286 51.001957,38.997135 
	C51.001453,39.506611 51.000153,39.999847 51.000153,39.999847 
	C50.708534,40.573563 50.416920,41.147278 50.160507,42.059307 
	C50.195705,42.397621 50.181763,42.719677 50.167686,42.880245 
	C49.824440,43.033585 49.505268,43.086590 48.767059,43.300701 
	C48.338024,43.401577 47.999516,43.678123 47.999516,43.678123 
	C47.812195,43.673046 47.624870,43.667973 46.788620,43.750851 
	C45.099361,43.936005 44.059029,44.033207 42.578201,44.067459 
	C41.245644,43.992146 40.353588,43.979774 39.461529,43.967407 
	C39.461529,43.967403 39.509113,43.992546 39.276237,43.812420 
	C38.914768,43.461086 38.786175,43.289875 38.925148,42.987015 
	C39.467258,42.570518 39.741795,42.285679 40.278812,41.892082 
	C40.716671,41.257553 40.892056,40.731785 41.333824,39.973869 
	C41.789528,38.826233 41.978848,37.910751 42.168167,36.995270 
	C43.098392,35.859333 44.028622,34.723396 44.999855,33.244568 
z"/>
<path fill="#E2FBFC" opacity="1.000000" stroke="none" 
	d="
M51.222496,40.084362 
	C51.000153,39.999847 51.001453,39.506611 51.004646,39.260181 
	C51.823360,39.269623 52.638882,39.525490 53.754730,39.906837 
	C53.784130,40.284397 53.513206,40.536484 52.961563,40.835846 
	C52.268837,40.645046 51.856838,40.406963 51.222496,40.084362 
z"/>
<path fill="#7C7D7D" opacity="1.000000" stroke="none" 
	d="
M30.837305,32.309238 
	C31.138937,32.012337 31.315477,32.035576 31.750748,32.322929 
	C32.009476,32.587040 31.999790,32.988590 32.001774,33.322327 
	C31.997440,34.101006 31.991121,34.545952 31.682446,35.153145 
	C30.923561,36.542984 30.467035,37.770576 29.718103,39.011253 
	C29.231054,39.038174 29.036413,39.052013 28.841774,39.065849 
	C29.465254,36.920361 30.088734,34.774872 30.837305,32.309238 
z"/>
<path fill="#808281" opacity="1.000000" stroke="none" 
	d="
M28.901634,39.383049 
	C29.036413,39.052013 29.231054,39.038174 30.057720,39.011505 
	C31.143354,38.986328 31.596964,38.973988 32.034756,39.363113 
	C32.011333,40.835300 32.003727,41.906017 31.996122,42.976738 
	C31.591665,42.909794 31.187206,42.842850 30.487698,42.683739 
	C29.782265,41.627800 29.371881,40.664024 28.901634,39.383049 
z"/>
<path fill="#157ABC" opacity="1.000000" stroke="none" 
	d="
M26.997501,30.200855 
	C27.532795,30.125183 28.065590,30.259579 28.787138,30.598690 
	C28.533205,30.860277 28.090521,30.917154 27.318539,30.902542 
	C26.989243,30.831051 26.995005,30.410925 26.997501,30.200855 
z"/>
<path fill="#157ABC" opacity="1.000000" stroke="none" 
	d="
M25.000309,29.251644 
	C25.108049,29.273207 25.214882,29.546579 25.161915,29.913515 
	C25.001211,29.839205 25.000303,29.671331 25.000309,29.251644 
z"/>
<path fill="#797B7A" opacity="1.000000" stroke="none" 
	d="
M40.016335,42.000839 
	C39.741795,42.285679 39.467258,42.570518 38.836868,43.014126 
	C38.481010,43.172890 38.211636,43.419052 38.211636,43.419052 
	C36.629162,43.554005 35.046688,43.688957 33.199783,43.265232 
	C32.961578,42.478279 32.987801,42.250000 33.414574,42.014599 
	C34.886368,41.990826 35.957615,41.974171 37.402313,41.961899 
	C38.522625,41.977798 39.269478,41.989319 40.016335,42.000839 
z"/>
<path fill="#8D8C8A" opacity="1.000000" stroke="none" 
	d="
M33.014027,42.021721 
	C32.987801,42.250000 32.961578,42.478279 32.862724,43.044853 
	C32.790089,43.383148 32.354527,43.255493 32.175323,43.116116 
	C32.003727,41.906017 32.011333,40.835300 32.115028,39.295597 
	C32.211117,38.826614 32.373775,38.691547 32.593315,38.852146 
	C33.205357,39.388748 33.597855,39.764751 33.872299,40.379013 
	C33.507504,41.085419 33.260765,41.553570 33.014027,42.021721 
z"/>
<path fill="#C9807D" opacity="1.000000" stroke="none" 
	d="
M39.497673,44.115944 
	C40.353588,43.979774 41.245644,43.992146 42.568520,44.258602 
	C42.999332,44.512688 42.974159,44.895416 42.974159,44.895416 
	C42.140057,44.873535 41.305958,44.851654 40.080204,44.678970 
	C39.688553,44.528164 39.533813,44.264477 39.497673,44.115944 
z"/>
<path fill="#C9807D" opacity="1.000000" stroke="none" 
	d="
M38.513081,43.645390 
	C38.211636,43.419052 38.481010,43.172890 38.569294,43.145779 
	C38.786175,43.289875 38.914768,43.461086 39.298157,43.828033 
	C39.306808,43.973087 39.060669,43.922405 38.513081,43.645390 
z"/>
<path fill="#CC6E6E" opacity="1.000000" stroke="none" 
	d="
M43.237782,44.956482 
	C42.974159,44.895416 42.999332,44.512688 43.009018,44.321548 
	C44.059029,44.033207 45.099361,43.936005 46.530857,43.862961 
	C46.922024,43.887112 46.935574,44.337646 46.677151,44.613243 
	C46.418728,44.888836 46.000042,45.014313 46.000042,45.014313 
	C45.559574,45.029980 45.119110,45.045647 44.351532,45.108994 
	C43.850082,45.110298 43.675743,45.063923 43.237782,44.956482 
z"/>
<path fill="#CD363B" opacity="1.000000" stroke="none" 
	d="
M48.085079,43.873898 
	C47.999516,43.678123 48.338024,43.401577 48.555614,43.421944 
	C48.572350,43.651428 48.371494,43.860550 48.085079,43.873898 
z"/>
<path fill="#CD363B" opacity="1.000000" stroke="none" 
	d="
M46.112316,45.220005 
	C46.000042,45.014313 46.418728,44.888836 46.629372,44.833488 
	C46.871826,44.972126 46.903633,45.166103 46.961876,45.653046 
	C46.678894,45.853065 46.424320,45.679626 46.112316,45.220005 
z"/>
<path fill="#888988" opacity="1.000000" stroke="none" 
	d="
M31.984802,34.990894 
	C31.991121,34.545952 31.997440,34.101006 32.235985,33.202984 
	C32.665451,32.463295 32.862690,32.176685 33.059929,31.890076 
	C33.399815,31.738760 33.739697,31.587446 34.612450,31.847168 
	C35.886822,32.478771 36.628326,32.699341 37.369835,32.919914 
	C37.607498,33.090183 37.738567,33.320992 37.769539,34.061260 
	C37.803391,34.684990 37.830750,34.859795 37.547539,35.062607 
	C37.030704,35.116547 36.824444,35.142487 36.300350,35.185287 
	C35.137108,35.208817 34.291698,35.215488 33.081562,35.160267 
	C32.472824,35.062550 32.228813,35.026722 31.984802,34.990894 
z"/>
<path fill="#838584" opacity="1.000000" stroke="none" 
	d="
M42.073677,36.647247 
	C41.978848,37.910751 41.789528,38.826233 41.312817,39.684952 
	C41.016605,39.435406 41.007786,39.242626 40.896397,38.825233 
	C40.601524,38.317722 40.342625,38.123695 39.911873,37.762356 
	C39.584663,36.824966 39.362713,36.143772 39.121223,35.337616 
	C39.101685,35.212658 38.991806,34.984821 38.991806,34.984821 
	C39.987602,35.422958 40.983398,35.861095 42.073677,36.647247 
z"/>
<path fill="#16905C" opacity="1.000000" stroke="none" 
	d="
M42.630554,26.685799 
	C42.811684,27.554771 42.627216,28.117426 42.192360,28.850235 
	C41.469772,28.292019 40.997578,27.563650 40.525379,26.835281 
	C41.105236,26.683348 41.685097,26.531412 42.630554,26.685799 
z"/>
<path fill="#16905C" opacity="1.000000" stroke="none" 
	d="
M37.960426,27.254511 
	C38.063385,26.626659 38.653793,26.201893 39.653793,25.893503 
	C39.524883,26.492453 38.986378,26.975023 37.960426,27.254511 
z"/>
<path fill="#787674" opacity="1.000000" stroke="none" 
	d="
M37.194153,32.518833 
	C36.628326,32.699341 35.886822,32.478771 34.879272,31.954552 
	C35.414978,31.806517 36.216724,31.962133 37.194153,32.518833 
z"/>
<path fill="#787674" opacity="1.000000" stroke="none" 
	d="
M32.789284,31.934101 
	C32.862690,32.176685 32.665451,32.463295 32.234001,32.869247 
	C31.999790,32.988590 32.009476,32.587040 32.010220,32.386288 
	C32.180187,32.116398 32.349415,32.047260 32.789284,31.934101 
z"/>
<path fill="#DBEEEB" opacity="1.000000" stroke="none" 
	d="
M37.858109,35.034603 
	C37.830750,34.859795 37.803391,34.684990 37.841171,34.252895 
	C38.186626,34.177277 38.466942,34.358940 38.869530,34.762714 
	C38.991806,34.984821 39.101685,35.212658 38.806202,35.212723 
	C38.293182,35.153393 38.075645,35.093998 37.858109,35.034603 
z"/>
<path fill="#909190" opacity="1.000000" stroke="none" 
	d="
M37.547539,35.062607 
	C38.075645,35.093998 38.293182,35.153393 38.825745,35.337685 
	C39.362713,36.143772 39.584663,36.824966 40.015629,37.984882 
	C40.416912,38.745949 40.675014,38.941364 40.998962,39.049843 
	C41.007786,39.242626 41.016605,39.435406 41.046432,39.917103 
	C40.892056,40.731785 40.716671,41.257553 40.278812,41.892082 
	C39.269478,41.989319 38.522625,41.977798 37.387886,41.605431 
	C36.973244,40.768471 36.946484,40.292358 37.069977,39.432232 
	C37.019547,37.754951 36.818863,36.461689 36.618183,35.168427 
	C36.824444,35.142487 37.030704,35.116547 37.547539,35.062607 
z"/>
<path fill="#8D8C8A" opacity="1.000000" stroke="none" 
	d="
M31.682446,35.153145 
	C32.228813,35.026722 32.472824,35.062550 32.910427,35.428421 
	C32.860603,36.736160 32.617191,37.713856 32.373775,38.691547 
	C32.373775,38.691547 32.211117,38.826614 32.130844,38.894131 
	C31.596964,38.973988 31.143354,38.986328 30.350128,38.998421 
	C30.467035,37.770576 30.923561,36.542984 31.682446,35.153145 
z"/>
<path fill="#898684" opacity="1.000000" stroke="none" 
	d="
M36.919727,39.816250 
	C36.946484,40.292358 36.973244,40.768471 37.014427,41.601051 
	C35.957615,41.974171 34.886368,41.990826 33.414574,42.014599 
	C33.260765,41.553570 33.507504,41.085419 34.237999,40.331619 
	C35.454414,39.969395 36.187069,39.892822 36.919727,39.816250 
z"/>
<path fill="#110D0C" opacity="1.000000" stroke="none" 
	d="
M37.069977,39.432232 
	C36.187069,39.892822 35.454414,39.969395 34.356056,40.093361 
	C33.597855,39.764751 33.205357,39.388748 32.593315,38.852146 
	C32.617191,37.713856 32.860603,36.736160 33.275154,35.490311 
	C34.291698,35.215488 35.137108,35.208817 36.300350,35.185287 
	C36.818863,36.461689 37.019547,37.754951 37.069977,39.432232 
z"/>
<path fill="#797B7A" opacity="1.000000" stroke="none" 
	d="
M40.896397,38.825233 
	C40.675014,38.941364 40.416912,38.745949 40.120888,38.241074 
	C40.342625,38.123695 40.601524,38.317722 40.896397,38.825233 
z"/>
</svg>